<svg width="65" height="64" viewBox="0 0 65 64" fill="none" xmlns="http://www.w3.org/2000/svg">
<circle cx="32.5" cy="32" r="32" fill="#F2F3F7"/>
<path d="M42 20C43.6562 20 45 21.3431 45 23C45 23.9437 44.5562 24.8312 43.8 25.4L42.9312 26.05C38.7687 26.45 35.2812 29.175 33.7875 32.9125L30.2 35.6C29.4875 36.1313 28.5125 36.1313 27.8 35.6L14.2 25.4C13.4446 24.8312 13 23.9437 13 23C13 21.3431 14.3431 20 16 20H42ZM31.4 37.2L33.05 35.9625C33.0187 36.3062 33 36.65 33 37C33 39.6562 33.9438 42.1 35.5125 44H17C14.7906 44 13 42.2062 13 40V27L26.6 37.2C28.025 38.2688 29.975 38.2688 31.4 37.2ZM53 37C53 41.9688 48.9688 46 44 46C39.0312 46 35 41.9688 35 37C35 32.0312 39.0312 28 44 28C48.9688 28 53 32.0312 53 37ZM46.7938 34.2938L43 38.0875L41.2062 36.2938C40.8187 35.9 40.1813 35.9 39.7938 36.2938C39.4 36.6813 39.4 37.3187 39.7938 37.7062L42.2938 40.2062C42.6813 40.6 43.3187 40.6 43.7062 40.2062L48.2062 35.7062C48.6 35.3187 48.6 34.6813 48.2062 34.2938C47.8187 33.9 47.1813 33.9 46.7938 34.2938Z" fill="#0D393A"/>
</svg>
