<svg width="21" height="17" viewBox="0 0 21 17" fill="none" xmlns="http://www.w3.org/2000/svg">
<path d="M4.80351 2.95701C6.21555 1.85733 8.02603 1.01998 10.1999 1.01998C12.7754 1.01998 14.8376 2.19425 16.3389 3.58908C17.8307 4.97244 18.8284 6.60124 19.3001 7.76785C19.4053 8.01966 19.4053 8.30016 19.3001 8.55196C18.873 9.58152 18.0156 11.0318 16.7533 12.3259L20.1065 14.9524C20.438 15.2138 20.4986 15.6951 20.2372 16.0266C19.9758 16.3581 19.4945 16.4186 19.163 16.1573L0.293114 1.3671C-0.0394028 1.10636 -0.0977016 0.625694 0.162938 0.293114C0.423609 -0.0394028 0.904279 -0.0977016 1.23705 0.162938L4.80351 2.95701ZM7.11123 4.76526L9.98951 7.02198C10.1234 6.75105 10.1999 6.44505 10.1999 6.09124C10.1999 5.75337 10.0756 5.40912 9.93214 5.11269C10.0214 5.10313 10.1106 5.07125 10.1999 5.07125C11.8892 5.07125 13.2599 6.44186 13.2599 8.13122C13.2599 8.59659 13.1674 9.01096 12.9762 9.38708L14.2352 10.3497C14.589 9.69945 14.7898 8.95359 14.7898 8.13122C14.7898 5.62587 12.7339 3.54127 10.1999 3.54127C9.01096 3.54127 7.92404 4.02258 7.11123 4.76526ZM10.1999 15.2998C7.62441 15.2998 5.56212 14.1268 4.06083 12.7307C2.56973 11.3187 1.57269 9.68989 1.0984 8.55196C0.993846 8.30016 0.993846 8.01966 1.0984 7.76785C1.40248 7.03792 1.92172 6.09443 2.64846 5.14775L5.65456 7.51604C5.62587 7.72641 5.60994 7.93997 5.60994 8.13122C5.60994 10.6939 7.66585 12.7499 10.1999 12.7499C10.7959 12.7499 11.3665 12.6351 11.8892 12.4279L14.2225 14.2639C13.0654 14.8886 11.7235 15.2998 10.1999 15.2998Z" fill="#BFC3D9"/>
</svg>
