<svg width="16" height="17" viewBox="0 0 16 17" fill="none" xmlns="http://www.w3.org/2000/svg">
<path fill-rule="evenodd" clip-rule="evenodd" d="M8.00024 7V10H12.5002C12.3102 11.02 11.7892 11.742 10.9252 12.32V14.368H13.5622C15.1052 12.948 15.9962 10.855 15.9962 8.37C15.9962 8.06 15.9632 7.61 15.8992 7.018L8.00024 7Z" fill="#4285F4"/>
<path fill-rule="evenodd" clip-rule="evenodd" d="M8.16116 16.345C10.3642 16.345 12.2112 15.615 13.5622 14.368L10.9252 12.321C10.1942 12.811 9.25916 13.1 8.16116 13.1C6.03516 13.1 4.23616 11.664 3.59516 9.73499H0.868164V11.85C1.54745 13.2018 2.58925 14.3381 3.87715 15.1318C5.16504 15.9256 6.6483 16.3457 8.16116 16.345Z" fill="#34A853"/>
<path fill-rule="evenodd" clip-rule="evenodd" d="M3.59524 9.73496C3.42717 9.23541 3.34073 8.71203 3.33924 8.18496C3.33924 7.64696 3.43124 7.12396 3.59524 6.63396V4.51996H0.868244C0.297154 5.6569 -9.67786e-05 6.91165 0.000244434 8.18396C0.000244434 9.50096 0.315244 10.748 0.868244 11.85L3.59524 9.73496Z" fill="#FBBC04"/>
<path fill-rule="evenodd" clip-rule="evenodd" d="M8.16116 3.26999C9.35916 3.26999 10.4352 3.68099 11.2812 4.48999L13.6212 2.14999C12.2082 0.831987 10.3612 0.0239874 8.16116 0.0239874C6.64819 0.0234135 5.16486 0.443591 3.87696 1.23756C2.58905 2.03153 1.54731 3.16801 0.868164 4.51999L3.59516 6.63399C4.23616 4.70499 6.03516 3.26899 8.16116 3.26899V3.26999Z" fill="#EA4335"/>
</svg>
