<svg width="151" height="24" viewBox="0 0 151 24" fill="none" xmlns="http://www.w3.org/2000/svg">
<path d="M18.8832 9.6366L20.4664 13.6978H17.2771L18.8832 9.6366Z" fill="#0D393A"/>
<path d="M23.4952 15.3499L20.4207 6.86042C20.1683 6.21797 19.5488 5.78203 18.8604 5.78203C18.1721 5.78203 17.5526 6.21797 17.3002 6.86042L14.7763 14.088C14.6157 14.5239 14.3403 14.891 13.9732 15.1663C13.6291 15.4417 13.3078 15.6252 13.0096 15.7859C12.4589 16.0382 11.8623 16.153 11.2199 16.153C10.4627 16.153 9.75143 15.9694 9.13193 15.6252C8.51243 15.2811 8.00765 14.7992 7.66348 14.1797C7.31931 13.5602 7.1587 12.8719 7.1587 12.0688C7.1587 10.9216 7.54876 9.98088 8.32887 9.20077C9.10898 8.42065 10.0497 8.03059 11.1969 8.03059C12.2524 8.03059 13.2161 8.37476 14.1109 9.08604C14.5468 9.43021 15.1663 9.40727 15.5564 9.04015L15.5794 9.01721C16.0612 8.55832 16.0382 7.80115 15.5335 7.38815C15.0975 7.02103 14.5927 6.72275 14.065 6.47036C13.1472 6.05736 12.2065 5.85086 11.2428 5.85086C10.0956 5.85086 9.01721 6.12619 8.03059 6.69981C7.04398 7.25048 6.26386 8.00765 5.73614 8.92543C5.20841 9.84321 4.93308 10.8987 4.93308 12.0688C4.93308 13.9044 5.52964 15.3958 6.69981 16.566C7.86998 17.7361 9.38432 18.3327 11.2199 18.3327C11.9771 18.3327 12.6654 18.2409 13.2849 18.0574C13.4914 17.9885 13.6979 17.9197 13.8815 17.8509C14.6616 17.5067 15.6023 16.7725 16.4742 15.9235H21.3155L22.2103 18.2868C20.0994 21.7055 16.3136 24 12 24C5.36902 24 0 18.631 0 12C0 5.36902 5.36902 0 12 0C18.631 0 24 5.36902 24 12C23.9541 13.1472 23.7935 14.2715 23.4952 15.3499Z" fill="#0D393A"/>
<path d="M42.6922 7.35379L42.6692 7.37674C42.2792 7.76679 41.6597 7.76679 41.2237 7.42263C40.3289 6.71134 39.3652 6.36717 38.3098 6.36717C37.1855 6.36717 36.2218 6.75723 35.4417 7.53735C34.6616 8.31746 34.2715 9.25819 34.2715 10.4054C34.2715 11.1855 34.4321 11.8968 34.7763 12.5163C35.1205 13.1358 35.6023 13.6177 36.2447 13.9618C36.8642 14.306 37.5755 14.4895 38.3327 14.4895C38.9981 14.4895 39.5946 14.3748 40.1224 14.1224C40.4436 13.9848 40.7878 13.7553 41.1549 13.457C41.5908 13.0899 42.2562 13.1358 42.6463 13.5488C43.1052 14.0077 43.0363 14.7649 42.5315 15.1779C41.9809 15.6138 41.4532 15.9351 40.9484 16.1645C40.1683 16.4857 39.2734 16.6693 38.2868 16.6693C36.4512 16.6693 34.9369 16.0957 33.7667 14.9255C32.5966 13.7553 32 12.2639 32 10.4284C32 9.23525 32.2753 8.20274 32.8031 7.28496C33.3308 6.36717 34.1109 5.63295 35.0975 5.05934C36.0841 4.50867 37.1625 4.21039 38.3098 4.21039C39.2964 4.21039 40.2371 4.41689 41.1319 4.82989C41.6597 5.08228 42.1644 5.38056 42.6004 5.74767C43.1511 6.16067 43.174 6.91784 42.6922 7.35379Z" fill="#0D393A"/>
<path d="M98.8375 4.14136C99.5258 4.14136 100.145 4.5773 100.398 5.21975L104.551 16.715H102.21L101.293 14.2599H96.4512L95.4876 16.715H93.1472L97.3002 5.21975C97.5067 4.5773 98.1262 4.14136 98.8375 4.14136ZM98.8375 7.9731L97.2543 12.0572H100.421L98.8375 7.9731Z" fill="#0D393A"/>
<path d="M51.7322 7.88137H53.9349V16.6691H51.7322V15.7513C51.2963 16.1644 50.8604 16.4626 50.4474 16.6232C50.0114 16.8068 49.5525 16.8986 49.0477 16.8986C47.9234 16.8986 46.9368 16.4626 46.1108 15.5907C45.2848 14.7188 44.8718 13.6175 44.8718 12.3097C44.8718 10.9559 45.2619 9.8546 46.0649 8.9827C46.868 8.11081 47.8317 7.67487 48.9789 7.67487C49.5066 7.67487 49.9885 7.76664 50.4703 7.97314C50.9292 8.17964 51.3651 8.47792 51.7552 8.86798V7.88137H51.7322ZM49.4148 9.67104C48.7265 9.67104 48.1758 9.90049 47.7169 10.3823C47.2581 10.8642 47.0516 11.4837 47.0516 12.2408C47.0516 12.998 47.281 13.6175 47.7399 14.1223C48.1988 14.6041 48.7724 14.8565 49.4378 14.8565C50.1261 14.8565 50.6997 14.6271 51.1586 14.1452C51.6175 13.6634 51.847 13.0439 51.847 12.2638C51.847 11.5066 51.6175 10.8871 51.1586 10.4053C50.6768 9.92343 50.1032 9.67104 49.4148 9.67104Z" fill="#0D393A"/>
<path d="M58.3404 7.88148V8.84515C58.7304 8.4551 59.1664 8.15682 59.6253 7.95032C60.0842 7.74382 60.5889 7.65204 61.1167 7.65204C62.2639 7.65204 63.2276 8.08798 64.0306 8.95988C64.8337 9.83177 65.2237 10.9331 65.2237 12.2868C65.2237 13.5947 64.8107 14.696 63.9847 15.5679C63.1587 16.4398 62.1721 16.8757 61.0478 16.8757C60.543 16.8757 60.0612 16.784 59.6253 16.6004C59.1893 16.4169 58.7534 16.1186 58.3174 15.7285V19.8585H56.1377V7.88148H58.3404ZM60.6578 9.67116C59.9694 9.67116 59.3958 9.9006 58.9369 10.3824C58.478 10.8643 58.2486 11.4838 58.2486 12.2409C58.2486 13.0211 58.478 13.6406 58.9369 14.1224C59.3958 14.6042 59.9694 14.8337 60.6578 14.8337C61.3232 14.8337 61.8968 14.5813 62.3557 14.0995C62.8146 13.6176 63.044 12.9752 63.044 12.218C63.044 11.4608 62.8146 10.8413 62.3557 10.3595C61.9197 9.92355 61.3461 9.67116 60.6578 9.67116Z" fill="#0D393A"/>
<path d="M69.239 7.88148V8.84515C69.6291 8.4551 70.0651 8.15682 70.5239 7.95032C70.9828 7.74382 71.4876 7.65204 72.0153 7.65204C73.1626 7.65204 74.1262 8.08798 74.9293 8.95988C75.7324 9.83177 76.1224 10.9331 76.1224 12.2868C76.1224 13.5947 75.7094 14.696 74.8834 15.5679C74.0574 16.4398 73.0708 16.8757 71.9465 16.8757C71.4417 16.8757 70.9599 16.784 70.5239 16.6004C70.088 16.4169 69.6521 16.1186 69.2161 15.7285V19.8585H67.0364V7.88148H69.239ZM71.5564 9.67116C70.8681 9.67116 70.2945 9.9006 69.8356 10.3824C69.3767 10.8643 69.1473 11.4838 69.1473 12.2409C69.1473 13.0211 69.3767 13.6406 69.8356 14.1224C70.2945 14.6042 70.8681 14.8337 71.5564 14.8337C72.2218 14.8337 72.7955 14.5813 73.2543 14.0995C73.7132 13.6176 73.9427 12.9752 73.9427 12.218C73.9427 11.4608 73.7132 10.8413 73.2543 10.3595C72.8184 9.92355 72.2448 9.67116 71.5564 9.67116Z" fill="#0D393A"/>
<path d="M86.7457 12.9063H79.6788C79.7705 13.5258 80.0459 14.0306 80.5048 14.3977C80.9407 14.7648 81.5143 14.9484 82.2027 14.9484C83.0287 14.9484 83.74 14.6501 84.3136 14.0765L86.1721 14.9484C85.7132 15.6138 85.1625 16.0956 84.5201 16.3939C83.8776 16.6922 83.0975 16.8757 82.2256 16.8757C80.8489 16.8757 79.7247 16.4398 78.8528 15.5679C77.9809 14.696 77.5449 13.6176 77.5449 12.3098C77.5449 10.979 77.9809 9.85471 78.8298 8.98282C79.7017 8.08798 80.7801 7.65204 82.0879 7.65204C83.4646 7.65204 84.5889 8.08798 85.4608 8.98282C86.3327 9.87766 86.7686 11.0249 86.7686 12.4933L86.7457 12.9063ZM84.543 11.1626C84.4053 10.6807 84.1071 10.2677 83.6711 9.96944C83.2352 9.67116 82.7533 9.51055 82.1797 9.51055C81.5602 9.51055 81.0325 9.6941 80.5736 10.0383C80.2753 10.2448 80.0229 10.6348 79.7705 11.1855H84.543V11.1626Z" fill="#0D393A"/>
<path d="M88.0308 7.88148H89.9122V8.98282C90.1187 8.54688 90.394 8.22565 90.7382 7.99621C91.0824 7.76676 91.4495 7.65204 91.8625 7.65204C92.1378 7.65204 92.4361 7.72087 92.7573 7.88148L92.069 9.78588C91.8166 9.64821 91.5872 9.60233 91.4266 9.60233C91.0824 9.60233 90.807 9.80883 90.5776 10.2218C90.3482 10.6348 90.2334 11.4608 90.2334 12.6998V13.1358V16.6922H88.0537V7.88148H88.0308Z" fill="#0D393A"/>
<path d="M106.042 7.65204H108.268V11.8738C108.268 12.6998 108.313 13.2735 108.428 13.5947C108.543 13.9159 108.727 14.1683 108.979 14.3518C109.231 14.5354 109.53 14.6272 109.897 14.6272C110.264 14.6272 110.585 14.5354 110.837 14.3748C111.09 14.1912 111.273 13.9388 111.411 13.5947C111.503 13.3423 111.549 12.7916 111.549 11.9656V7.67498H113.751V11.392C113.751 12.9293 113.637 13.9847 113.384 14.5354C113.086 15.2237 112.65 15.7515 112.076 16.1186C111.503 16.4857 110.769 16.6692 109.874 16.6692C108.91 16.6692 108.13 16.4627 107.533 16.0268C106.937 15.5909 106.524 14.9943 106.271 14.2371C106.088 13.7094 106.019 12.7457 106.019 11.3232V7.65204H106.042Z" fill="#0D393A"/>
<path d="M122.424 4.48547H124.627V16.6461H122.424V15.7283C121.988 16.1413 121.552 16.4396 121.139 16.6002C120.704 16.7838 120.245 16.8755 119.74 16.8755C118.616 16.8755 117.629 16.4396 116.803 15.5677C115.977 14.6958 115.564 13.5945 115.564 12.2866C115.564 10.9329 115.954 9.83155 116.757 8.95966C117.56 8.08777 118.524 7.65182 119.671 7.65182C120.199 7.65182 120.681 7.7436 121.162 7.9501C121.621 8.1566 122.057 8.45488 122.447 8.84494V4.48547H122.424ZM120.107 9.67094C119.419 9.67094 118.868 9.90039 118.409 10.3822C117.95 10.8641 117.744 11.4836 117.744 12.2407C117.744 12.9979 117.973 13.6174 118.432 14.1222C118.891 14.604 119.465 14.8564 120.13 14.8564C120.818 14.8564 121.392 14.627 121.851 14.1451C122.31 13.6633 122.539 13.0438 122.539 12.2637C122.539 11.5065 122.31 10.887 121.851 10.4052C121.392 9.92333 120.818 9.67094 120.107 9.67094Z" fill="#0D393A"/>
<path d="M127.725 4.25604C128.115 4.25604 128.436 4.39371 128.711 4.66905C128.987 4.94438 129.124 5.28855 129.124 5.6786C129.124 6.06866 128.987 6.41283 128.711 6.68816C128.436 6.9635 128.115 7.10117 127.725 7.10117C127.335 7.10117 126.99 6.9635 126.715 6.68816C126.44 6.41283 126.302 6.06866 126.302 5.65566C126.302 5.2656 126.44 4.94438 126.715 4.66905C127.013 4.39371 127.335 4.25604 127.725 4.25604ZM126.623 7.88128H128.826V16.669H126.623V7.88128Z" fill="#0D393A"/>
<path d="M131.097 4.64612H133.3V7.8813H134.608V9.7857H133.3V16.6691H131.097V9.7857H129.973V7.8813H131.097V4.64612Z" fill="#0D393A"/>
<path d="M139.885 7.65204C140.711 7.65204 141.491 7.85854 142.226 8.27154C142.96 8.68454 143.533 9.25816 143.924 9.94649C144.314 10.6348 144.543 11.4149 144.543 12.2409C144.543 13.067 144.337 13.8471 143.924 14.5583C143.511 15.2696 142.96 15.8432 142.249 16.2562C141.537 16.6692 140.757 16.8757 139.908 16.8757C138.646 16.8757 137.568 16.4169 136.696 15.522C135.824 14.6272 135.365 13.5488 135.365 12.2639C135.365 10.8872 135.87 9.73999 136.88 8.84515C137.729 8.0421 138.761 7.65204 139.885 7.65204ZM139.931 9.71705C139.243 9.71705 138.669 9.94649 138.233 10.4283C137.774 10.9102 137.545 11.5067 137.545 12.2639C137.545 13.0211 137.774 13.6406 138.21 14.1224C138.669 14.6042 139.22 14.8337 139.908 14.8337C140.597 14.8337 141.17 14.6042 141.629 14.1224C142.088 13.6406 142.317 13.0211 142.317 12.2639C142.317 11.5067 142.088 10.9102 141.652 10.4283C141.216 9.94649 140.642 9.71705 139.931 9.71705Z" fill="#0D393A"/>
<path d="M145.828 7.88148H147.709V8.98282C147.916 8.54688 148.191 8.22565 148.535 7.99621C148.88 7.76676 149.247 7.65204 149.66 7.65204C149.935 7.65204 150.233 7.72087 150.554 7.88148L149.866 9.78588C149.614 9.64821 149.384 9.60233 149.224 9.60233C148.88 9.60233 148.604 9.80883 148.375 10.2218C148.145 10.6348 148.031 11.4608 148.031 12.6998V13.1358V16.6922H145.851V7.88148H145.828Z" fill="#0D393A"/>
</svg>
